<svg width="719" height="563.8" xmlns="http://www.w3.org/2000/svg">

 <g>
  <title>Layer 1</title>
  <path id="svg_2" fill="#00a3ff" d="m563.20001,418.50001c-8.7,8.7 -26.1,21.7 -56.5,21.7l-187,0c56.5,-54.1 104.4,-99.6 108.8,-104c8.3,-8.4 17,-16.3 26.1,-23.8c21.8,-19.5 39.1,-21.7 54.4,-21.7c21.7,0 39.1,8.7 54.4,21.6c30.3,28.2 30.3,78.1 -0.2,106.2zm37,-140.9c-23,-24.8 -55.3,-39 -89.2,-39c-30.4,0 -56.5,10.9 -80.5,28.2c-8.8,8.7 -21.8,17.3 -32.7,30.3c-8.7,8.7 -195.7,190.7 -195.7,190.7c10.9,2.2 23.9,2.2 34.8,2.2l237.1,0c17.4,0 30.5,0 43.5,-2.2c30,-2.2 58.3,-14.4 80.5,-34.7c50,-47.6 50,-127.7 2.2,-175.5z"/>
  <path id="svg_3" fill="#00c8dc" d="m295.70001,264.60001c-23.9,-17.3 -47.9,-26 -76.1,-26c-33.9,0 -66.2,14.2 -89.2,39c-48.4,49.7 -47.4,129.2 2.2,177.7c21.7,19.5 43.5,30.3 69.6,32.5l50,-47.7l-28.3,0c-28.3,-2.1 -45.7,-10.8 -56.5,-21.6c-30,-29.6 -30.9,-77.6 -2.2,-108.3c15.2,-15.2 32.6,-21.7 54.4,-21.7c13.1,0 32.6,2.1 52.2,21.6c8.7,8.7 32.6,26 41.3,34.7l2.1,0l32.6,-32.5l0,-2.2c-15.1,-15.1 -39,-34.6 -52.1,-45.5"/>
  <path id="svg_4" fill="#006eff" d="m524.10001,210.50001c-24.7,-66.3 -88,-110.4 -158.8,-110.5c-84.8,0 -152.2,62.8 -165.3,140.8c6.5,0 13.1,-2.1 21.8,-2.1s19.6,2.1 28.3,2.1c10.9,-54.2 58.7,-93.2 115.3,-93.2c47.8,0 89.2,28.2 108.7,69.3c0,0 2.2,2.2 2.2,0c15.1,-2.1 32.5,-6.4 47.8,-6.4z"/>
 </g>
</svg>